<svg id="ePBJWI1zwkY1" xmlns="http://www.w3.org/2000/svg" xmlns:xlink="http://www.w3.org/1999/xlink" viewBox="0 0 1000 1000" shape-rendering="geometricPrecision" text-rendering="geometricPrecision"><path d="M102,240.872h795.034c14.359403,0,26,11.640597,26,26v634.088c0,14.359403-11.640597,26-26,26h-795.034c-14.359403,0-26-11.640597-26-26v-634.088c0-14.359403,11.640597-26,26-26Z" fill="#fff" fill-rule="evenodd"/><path d="" fill-rule="evenodd"/><path d="M756.533,83.256c3.047141-6.103404,9.282726-9.959784,16.1045-9.959784s13.057359,3.85638,16.1045,9.959784l79.673,159.578c2.785641,5.579807,2.484516,12.203954-.79589,17.508007s-9.072601,8.532129-15.30911,8.531993h-159.345c-6.236509.000136-12.028704-3.22794-15.30911-8.531993s-3.581531-11.9282-.79589-17.508007Z" fill="#fff" fill-rule="evenodd"/><path d="M208.533,83.256c3.047141-6.103404,9.282726-9.959784,16.1045-9.959784s13.057359,3.85638,16.1045,9.959784l79.673,159.578c2.785641,5.579807,2.484516,12.203954-.79589,17.508007s-9.072601,8.532129-15.30911,8.531993h-159.345c-6.235619-.001596-12.026224-3.230367-15.305425-8.534119s-3.579818-11.92687-.794575-17.505881Z" fill="#fff" fill-rule="evenodd"/><path d="M429,752l32,33l54-53l53,52l32-33-85-86Z" fill-rule="evenodd"/><path d="" fill="#fff" fill-rule="evenodd"/><path d="M234.122,421.66h77.2c5.522847,0,10,4.477153,10,10v170.058c0,5.522847-4.477153,10-10,10h-77.2c-5.522847,0-10-4.477153-10-10v-170.058c0-5.522847,4.477153-10,10-10Z" fill-rule="evenodd"/><path d="M715.519,421.66h77.206c5.522847,0,10,4.477153,10,10v170.058c0,5.522847-4.477153,10-10,10h-77.206c-5.522847,0-10-4.477153-10-10v-170.058c0-5.522847,4.477153-10,10-10Z" fill-rule="evenodd"/></svg>