<svg xmlns="http://www.w3.org/2000/svg" width="1000" height="1000" viewBox="0 0 1000 1000">
  <defs>
    <style>
      .cls-1 {
        fill: #fff;
      }

      .cls-1, .cls-2 {
        fill-rule: evenodd;
      }
    </style>
  </defs>
  <path class="cls-1" d="M102,240.872H897.034a26,26,0,0,1,26,26V900.96a26,26,0,0,1-26,26H102a26,26,0,0,1-26-26V266.872A26,26,0,0,1,102,240.872Z"/>
  <path class="cls-2" d="M723,547"/>
  <path id="Triangle_1" data-name="Triangle 1" class="cls-1" d="M756.533,83.256a18,18,0,0,1,32.209,0l79.673,159.578a18,18,0,0,1-16.105,26.04H692.965a18,18,0,0,1-16.105-26.04Z"/>
  <path id="Triangle_1-2" data-name="Triangle 1" class="cls-1" d="M208.533,83.256a18,18,0,0,1,32.209,0l79.673,159.578a18,18,0,0,1-16.105,26.04H144.965a18,18,0,0,1-16.1-26.04Z"/>
  <path class="cls-2" d="M429,752l32,33,54-53,53,52,32-33-85-86Z"/>
  <path class="cls-1" d="M723,1000"/>
  <path class="cls-2" d="M234.122,421.66h77.2a10,10,0,0,1,10,10V601.718a10,10,0,0,1-10,10h-77.2a10,10,0,0,1-10-10V431.66A10,10,0,0,1,234.122,421.66Z"/>
  <path class="cls-2" d="M715.519,421.66h77.206a10,10,0,0,1,10,10V601.718a10,10,0,0,1-10,10H715.519a10,10,0,0,1-10-10V431.66A10,10,0,0,1,715.519,421.66Z"/>
</svg>
